<?xml version="1.0" encoding="UTF-8" standalone="no"?>
<!-- Created with Inkscape (http://www.inkscape.org/) -->

<svg
   xmlns:dc="http://purl.org/dc/elements/1.1/"
   xmlns:cc="http://creativecommons.org/ns#"
   xmlns:rdf="http://www.w3.org/1999/02/22-rdf-syntax-ns#"
   xmlns:svg="http://www.w3.org/2000/svg"
   xmlns="http://www.w3.org/2000/svg"
   xmlns:sodipodi="http://sodipodi.sourceforge.net/DTD/sodipodi-0.dtd"
   xmlns:inkscape="http://www.inkscape.org/namespaces/inkscape"
   version="1.1"
   id="svg3745"
   width="414"
   height="552"
   viewBox="0 0 414 552"
   sodipodi:docname="LAYER4.svg"
   inkscape:version="0.92.3 (2405546, 2018-03-11)">
  <metadata
     id="metadata3751">
    <rdf:RDF>
      <cc:Work
         rdf:about="">
        <dc:format>image/svg+xml</dc:format>
        <dc:type
           rdf:resource="http://purl.org/dc/dcmitype/StillImage" />
        <dc:title></dc:title>
      </cc:Work>
    </rdf:RDF>
  </metadata>
  <defs
     id="defs3749" />
  <sodipodi:namedview
     pagecolor="#ffffff"
     bordercolor="#666666"
     borderopacity="1"
     objecttolerance="10"
     gridtolerance="10"
     guidetolerance="10"
     inkscape:pageopacity="0"
     inkscape:pageshadow="2"
     inkscape:window-width="1366"
     inkscape:window-height="713"
     id="namedview3747"
     showgrid="false"
     inkscape:zoom="2"
     inkscape:cx="196.31473"
     inkscape:cy="295.24673"
     inkscape:window-x="-8"
     inkscape:window-y="-8"
     inkscape:window-maximized="1"
     inkscape:current-layer="svg3745" />
  <path
     style="fill:#000000"
     d="m 251.49626,242.55544 c -9.89213,-6.50488 -16.93835,-12.72918 -16.36324,-14.45451 0.2916,-0.8748 2.23317,0.13457 5.90079,3.06768 3.00641,2.40431 8.72869,6.5285 12.71619,9.16486 3.9875,2.63637 7.25,5.18829 7.25,5.67095 0,2.19386 -2.0587,1.44674 -9.50374,-3.44898 z m 6.53168,-10.68574 c -6.23232,-1.04459 -12.54579,-3.8845 -11.93751,-5.3697 0.22527,-0.55 0.85957,-0.90041 1.40957,-0.7787 1.51282,0.3348 13.6638,3.38746 16.43152,4.12806 2.54041,0.67978 3.12244,2.54623 0.8713,2.79408 -0.71655,0.0789 -3.76525,-0.26929 -6.77488,-0.77374 z M 143.25,227.96884 c -3.78313,-1.52063 -2.74136,-3.31524 1.5,-2.58399 2.0625,0.35559 5.775,0.9408 8.25,1.30048 l 4.5,0.65396 -3.5,-3.4277 c -1.925,-1.88524 -3.96644,-4.27239 -4.53653,-5.30479 -1.42859,-2.58705 -4.60876,-1.43583 -10.15428,3.67585 -4.16404,3.83828 -4.49095,3.9628 -6.10442,2.32529 -1.60718,-1.63113 -1.59028,-1.81905 0.29523,-3.2826 5.02017,-3.8967 14.85572,-7.6177 21.34905,-8.07679 9.04856,-0.63975 24.45522,3.83209 22.74366,6.60144 -0.46085,0.74567 -1.47906,0.76352 -3.33356,0.0584 -2.27685,-0.86566 -2.93104,-0.67595 -4.44236,1.28821 -1.5712,2.04198 -2.29374,3.80336 -1.56019,3.80336 0.14113,0 1.71006,-0.41685 3.48652,-0.92633 3.37539,-0.96805 5.12728,0.005 2.99587,1.66411 -3.51233,2.7339 -26.233,4.34371 -31.48899,2.23106 z m 39.09508,-4.51197 c -0.32569,-0.84872 -0.3415,-1.79378 -0.0351,-2.10013 0.87571,-0.87571 2.69007,0.60965 2.69007,2.20228 0,1.91885 -1.90756,1.84546 -2.65492,-0.10215 z m 51.22648,-0.34108 c -0.90099,-1.45784 7.59279,-8.568 13.97069,-11.69489 5.53716,-2.7147 6.7696,-2.92049 17.45775,-2.91516 12.17257,0.006 12.95473,0.21429 23.42949,6.23692 5.62895,3.23646 7.4152,5.93714 3.23252,4.88736 -1.42931,-0.35874 -5.20048,-2.22109 -8.38038,-4.13856 -6.67941,-4.02768 -6.88083,-4.07413 -7.55155,-1.74146 -0.27674,0.9625 -0.84679,2.58809 -1.26676,3.61243 -0.68273,1.66521 -0.41747,1.78641 2.50504,1.14452 4.69511,-1.03122 3.54036,1.42807 -1.52465,3.24707 -7.15698,2.57028 -27.04519,-0.0585 -28.27131,-3.73681 -0.32041,-0.96124 0.2084,-1.13666 1.94372,-0.64478 5.79124,1.64154 7.88388,1.8413 7.88388,0.75257 0,-0.61875 -0.45,-1.125 -1,-1.125 -0.55,0 -1,-0.87344 -1,-1.94098 0,-1.06754 -0.43313,-2.20867 -0.96251,-2.53585 -1.35973,-0.84036 -9.86374,3.65429 -14.94289,7.89779 -4.72306,3.946 -4.74358,3.95602 -5.52304,2.69483 z M 272,212 c 0,-0.55 -0.45,-1 -1,-1 -0.55,0 -1,0.45 -1,1 0,0.55 0.45,1 1,1 0.55,0 1,-0.45 1,-1 z m -40,6.95034 c 0,-2.50077 3.3773,-7.21111 7.10808,-9.91367 6.42143,-4.65166 12.00799,-6.00426 25.89192,-6.26885 13.79995,-0.26298 13.82445,-0.25563 27.5,8.258 3.3,2.05439 7.6875,4.27391 9.75,4.93227 2.0625,0.65836 3.75,1.61212 3.75,2.11946 0,2.38625 -7.44602,-0.25431 -16.09561,-5.70794 -12.3243,-7.77055 -11.82833,-7.63512 -26.31939,-7.18685 -11.89551,0.36799 -13.58498,0.65797 -18.585,3.18999 -6.71177,3.39886 -8.46377,4.91847 -10.02995,8.69954 C 233.78856,219.92468 232,221.05563 232,218.95034 Z m -102,-0.93349 c 0,-1.61455 9.66014,-6.01175 17.75585,-8.08229 13.23476,-3.38488 26.42352,-2.32113 31.9925,2.58039 3.42117,3.01112 1.6356,3.1743 -3.78995,0.34635 -8.61143,-4.48853 -27.25492,-2.79864 -39.91808,3.61827 C 130.48466,219.29484 130,219.41818 130,218.01685 Z"
     id="path3755"
     inkscape:connector-curvature="0" />
</svg>
